<svg width="274" height="58" version="1.1" viewBox="0 0 72.496 15.346" xmlns="http://www.w3.org/2000/svg"><g fill="#fff" transform="translate(-.30009)"><path d="m15.709 10.97h1.1515l0.44027-1.3293h2.2352l0.4318 1.3293h1.2023l-1.9812-5.8251h-1.4732zm1.905-2.286 0.8128-2.4553 0.79587 2.4553z"/><path d="m24.176 7.9306 0.2032-1.0922c-0.11853-0.127-0.31327-0.19473-0.508-0.19473-0.6096 0-0.95673 0.4318-1.143 0.9906l-0.0085-0.92287h-1.0329v4.2587h1.0922v-2.1082c0-0.79587 0.3556-1.0668 0.87207-1.0668 0.18627 0 0.381 0.0508 0.52493 0.13547z"/><path d="m26.132 6.7114v-0.92287h-0.3302l-1.3377 1.5663v0.23707h0.57573v2.0489c0 0.85513 0.49107 1.3801 1.4732 1.3801 0.29633 0 0.64347-0.06773 0.8128-0.2032v-0.88053c-0.1524 0.0762-0.34713 0.11853-0.49107 0.11853-0.47413 0-0.70273-0.18627-0.70273-0.65193v-1.8119h1.1599v-0.88053z"/><path d="m28.697 10.97h1.1769l0.84667-2.8448 0.82973 2.8448h1.1769l1.1261-4.2587h-1.1007l-0.635 2.9718-0.8382-2.9718h-1.0753l-0.8382 2.9887-0.65193-2.9887h-1.1261z"/><path d="m36.376 7.5242c0.77893 0 1.1853 0.6096 1.1853 1.3123s-0.4064 1.3208-1.1853 1.3208c-0.77893 0-1.1853-0.61807-1.1853-1.3208s0.4064-1.3123 1.1853-1.3123zm0-0.94827c-1.4393 0-2.286 0.9906-2.286 2.2606 0 1.2785 0.84667 2.2691 2.286 2.2691s2.286-0.9906 2.286-2.2691c0-1.27-0.84667-2.2606-2.286-2.2606z"/><path d="m41.829 7.9306 0.2032-1.0922c-0.11853-0.127-0.31327-0.19473-0.508-0.19473-0.6096 0-0.95673 0.4318-1.143 0.9906l-0.0085-0.92287h-1.0329v4.2587h1.0922v-2.1082c0-0.79587 0.3556-1.0668 0.87207-1.0668 0.18627 0 0.381 0.0508 0.52493 0.13547z"/><path d="m42.498 10.97h1.0922v-2.032l1.5494 2.032h1.3631l-1.7526-2.2521 1.7357-2.0066h-1.3123l-1.5833 1.8457v-3.6661h-1.0922z"/><path d="m48.39 10.97h1.1345v-2.4892h2.4384v2.4892h1.1345v-5.8251h-1.1345v2.3199h-2.4384v-2.3199h-1.1345z"/><path d="m57.78 6.7114h-1.0922v2.3791c0 0.66887-0.3048 0.98213-0.82127 0.98213-0.49953 0-0.7366-0.3302-0.7366-0.82127v-2.54h-1.0922v2.8025c0 0.92287 0.5334 1.5325 1.4393 1.5325 0.635 0 1.0583-0.33867 1.2531-0.77893l0.0085 0.70273h1.0414z"/><path d="m60.938 10.124c-0.74507 0-1.1345-0.56727-1.1345-1.2785s0.38947-1.2869 1.1345-1.2869 1.143 0.57573 1.143 1.2869-0.39793 1.2785-1.143 1.2785zm0.2794 0.9398c1.2107 0 1.9643-0.9652 1.9643-2.2183 0-1.2615-0.75353-2.2267-1.9473-2.2267-0.67733 0-1.1853 0.33867-1.4309 0.82973v-2.5569h-1.0922v6.0791h1.0583l0.0085-0.7874c0.2286 0.51647 0.71967 0.88053 1.4393 0.88053z"/></g><g stroke="#00c0ff" stroke-width=".19844" fill="#00c0ff"><g transform="rotate(45 3.6118 9.3551)" stroke-width=".13229"><path d="m0.0022815 0.0022816v10.583h5.2917v-1.3229h-1.3229v-5.2917h5.2917v6.6146h1.3229v-10.583h-5.2917v1.3229h3.9688v1.3229h-6.6146v6.6146h-1.3229v-9.2604z"/><path d="m5.5585 5.5585v2.1167h2.1167v-2.1167z"/></g><path d="m70.844 4.8533-1.4967 1.4967 1.4967 1.4967 1.4967-1.4967zm0 0.37418 1.1225 1.1225-1.1225 1.1225-1.1225-1.1225z"/><path d="m67.477 8.2209-1.4967 1.4967 1.4967 1.4967 1.4967-1.4967zm-1e-6 0.37418 1.1225 1.1225-1.1225 1.1225-1.1225-1.1225z"/><path d="m62.425 3.1695-1.4967 1.4967 1.4967 1.4967 1.4967-1.4967zm0 0.37418 1.1225 1.1225-1.1225 1.1225-1.1225-1.1225z" /></g></svg>